<svg width="80" height="50" viewBox="0 0 122 56" fill="none" xmlns="http://www.w3.org/2000/svg">
<g clip-path="url(#clip0)">
<path fill-rule="evenodd" clip-rule="evenodd" d="M12.8544 29.1913L12.8626 29.1874L12.8588 29.1809L12.8544 29.1913ZM16.1576 35.7523C16.2501 36.0318 16.3159 36.2375 16.3463 36.3261L15.6817 36.4788L16.1576 35.7523V35.7523ZM14.1766 30.5751L14.2108 30.5855C14.3032 30.7925 14.3779 30.9607 14.4247 31.0707L13.8753 31.3224L14.1766 30.5751ZM115.314 24.0051C115.309 24.0025 115.307 23.9999 115.301 23.9986C115.306 24.0011 115.31 24.0032 115.314 24.0051V24.0051ZM24.7104 29.2534C24.6773 29.2001 24.642 29.1483 24.6047 29.0981C24.5839 29.0688 24.5634 29.0392 24.5433 29.0095C24.5306 28.8555 24.4724 28.7604 24.3002 28.4828C22.3913 25.3961 21.5723 23.7683 21.2242 22.9162C21.7033 22.7732 22.466 22.6852 22.7717 22.6503C22.8654 22.6393 22.9502 22.6296 23.0293 22.6192C23.1616 23.0954 23.3217 23.8511 23.4027 24.2328C23.561 24.9794 23.5932 25.1237 23.68 25.2725C23.9268 25.6956 23.9268 25.6956 23.9376 25.9311C23.9439 26.0663 23.9521 26.252 23.9774 26.5199L23.9806 26.5555L23.9882 26.591C24.0781 27.0433 24.4344 28.2719 24.5882 28.6407L24.5736 28.609L24.8699 29.4365C24.8838 29.4779 24.9066 29.5413 24.9325 29.6131C24.8572 29.4934 24.7806 29.3718 24.7104 29.2534V29.2534ZM32.465 12.2585C32.4472 12.2799 32.4295 12.2993 32.4124 12.3213C32.3825 12.2989 32.3519 12.2775 32.3206 12.2572L32.465 12.2585V12.2585ZM57.0939 23.6311C56.9279 23.5715 56.7615 23.5133 56.5946 23.4564L56.5433 23.439C56.7699 23.3154 56.9788 23.1672 57.1775 23.0145C57.1522 23.2204 57.1244 23.426 57.0939 23.6311V23.6311ZM67.6992 24.4942C67.6929 24.4424 67.6891 24.3907 67.6834 24.3402C67.6378 23.9701 67.6157 23.6783 67.5954 23.4189C67.5461 22.7907 67.51 22.3346 67.184 21.8028C67.372 21.6494 67.4707 21.4605 67.4707 21.2354C67.4834 20.9921 67.472 20.829 67.4644 20.7326C67.4632 20.7163 67.4623 20.6999 67.4619 20.6835C67.472 20.4693 67.4733 20.1555 67.4745 19.7583C67.4758 19.0589 67.4821 17.3923 67.6043 16.6172C69.1569 17.0403 70.4176 17.6504 70.5873 17.9739C70.5999 18.0283 70.5949 18.1751 70.5923 18.2748L70.5885 18.3796C70.2955 18.6209 70.0126 18.87 69.7455 19.1728C69.3847 19.5752 68.9765 20.6919 68.1992 23.0411C68.0182 23.5858 67.7992 24.2457 67.6992 24.4942V24.4942ZM84.3407 15.496L84.2901 15.837C84.1679 16.6722 84.0527 17.4602 83.8736 18.2392C83.8116 18.509 83.7287 18.8318 83.6413 19.1734C83.4154 20.0507 83.1641 21.0335 83.0641 21.8222C83.0296 21.8458 82.9966 21.8718 82.9654 21.8998C82.6062 22.2192 82.3291 22.6237 82.1584 23.0779L79.2197 22.8696C79.2653 22.6742 79.2925 22.4704 79.3147 22.2692C79.3368 22.0719 79.3729 21.7478 79.4299 21.6449C79.5621 21.5498 79.7292 21.3809 80.2039 20.2726C80.6811 19.1469 81.1989 18.4339 81.854 17.5314C82.0812 17.2189 82.3154 16.8961 82.5685 16.5279C82.7318 16.2898 82.9097 16.0621 83.0964 15.8208C83.5527 15.232 84.0262 14.6226 84.3015 13.8507C84.4724 13.3694 84.4002 12.7683 84.2173 12.3006H84.5895L84.5287 12.7742L84.5236 12.8085L84.5224 12.8427C84.5186 12.9702 84.5198 13.0925 84.5211 13.2102C84.5211 13.4043 84.5236 13.5874 84.5015 13.7459C84.4977 13.7796 84.4186 14.6465 84.4186 14.6465L84.3407 15.496V15.496ZM105.939 30.8935C105.692 30.6495 105.503 30.3144 105.457 30.0634C105.587 30.1307 105.71 30.1973 105.785 30.2452L105.933 30.4865H106.282C106.332 30.5053 106.436 30.5777 106.502 30.6204C106.576 30.6709 106.651 30.7227 106.734 30.7692L106.904 30.863C107.145 30.997 107.391 31.1335 107.556 31.2926C107.518 31.3153 107.47 31.3379 107.41 31.3586L107.328 31.3839H106.935C106.546 31.3114 106.18 31.1322 105.939 30.8935V30.8935ZM100.384 27.1177C100.53 27.2212 100.716 27.35 100.951 27.5117L100.911 27.5356C100.809 27.5977 100.708 27.6573 100.607 27.7148C100.566 27.5045 100.49 27.3027 100.384 27.1177V27.1177ZM99.3195 26.078C99.4037 26.1802 99.4904 26.285 99.5803 26.3898C99.5026 26.348 99.4235 26.3091 99.3429 26.2734C99.3157 26.2617 99.2872 26.252 99.26 26.2417C99.2777 26.1886 99.2974 26.1343 99.3195 26.078V26.078ZM118.154 31.2422L118.15 31.2305C118.149 31.2292 118.152 31.2344 118.154 31.2422ZM118.198 31.3509L118.19 31.1296L118.187 31.083C118.184 31.0697 118.181 31.0564 118.179 31.0429C118.151 30.8773 118.161 30.6625 118.169 30.4354C118.182 30.1611 118.193 29.8641 118.146 29.562L118.214 29.461C118.17 29.3355 118.124 29.2109 118.076 29.0871C118.083 29.1037 118.088 29.1211 118.091 29.1388C118.055 28.9875 118.004 28.8645 117.965 28.7649C117.945 28.7171 117.927 28.6686 117.91 28.6193L117.84 28.3262C117.759 27.9788 117.673 27.6197 117.512 27.2406L117.494 27.1992L117.472 27.161L117.327 26.9107L117.223 26.734L117.128 26.4144C117.012 26.0379 116.489 25.2427 116.221 24.9865L116.172 24.94C116.175 24.9425 116.119 24.9057 116.119 24.9057L115.907 24.7692L115.813 24.7096C115.803 24.5388 115.73 24.2296 115.37 24.0374C115.315 23.9818 115.259 23.9261 115.201 23.8653C115.008 23.6641 114.789 23.437 114.519 23.261C114.355 23.1519 114.191 23.0419 114.028 22.9311L114.19 22.7376C114.484 22.3753 115.282 21.3046 115.653 20.7197C116.095 20.0113 116.408 19.1844 116.515 18.4475C116.549 18.214 116.601 17.6246 116.387 17.1134C115.793 15.7147 113.52 14.2991 112.435 13.852L111.467 13.4826L111.446 13.4748L111.427 13.4684L110.47 13.1708L110.021 13.0317L109.951 13.1229C109.319 12.9353 107.322 12.5218 106.235 13.1785C106.153 13.1348 106.068 13.0966 105.982 13.064C105.694 12.9579 104.744 12.659 103.999 12.9747C103.572 13.0019 103.169 13.1293 102.851 13.3364C102.403 13.4127 101.717 13.7983 101.168 14.1923C101.108 14.0073 101.052 13.854 100.975 13.7304C100.802 13.462 100.568 13.2401 100.293 13.0834C99.629 12.7218 98.8822 12.4643 98.117 12.2637L104.754 12.1744L105.131 12.1692L105.33 11.8425L112.529 0.0454896L113.188 -1.03302H111.943L14.1418 -1.05114H12.9057L13.5538 0.0241412L20.7179 11.9227L20.9204 12.2598L21.3078 12.2585C21.3343 12.2585 23.9711 12.2501 24.6901 12.2618C26.1857 12.287 27.6876 12.2753 29.1408 12.265L29.2908 12.2643C28.5763 12.3886 27.9193 12.5477 27.4269 12.7755C27.2813 12.8421 27.1478 12.9359 27.018 13.0265C26.9473 13.0775 26.8747 13.1256 26.8003 13.1708C25.3471 12.8169 24.0401 13.0608 22.9129 13.8986C22.832 13.8136 22.7527 13.7271 22.6749 13.6392C22.4996 13.4444 22.3483 13.2756 22.1964 13.1578C21.7356 12.8013 21.0115 12.3135 20.0387 12.1912C17.8583 11.9163 12.7259 15.6416 11.6582 18.093C10.7139 18.2515 10.0474 18.8318 9.45118 19.3552L9.32586 19.4652C9.06636 19.691 8.80623 19.9336 8.55433 20.1672C7.95684 20.7229 7.33974 21.2975 6.70302 21.685C6.10048 22.0486 5.45046 22.2776 4.96691 22.2951L4.88146 22.2977L4.81501 22.3177C4.7669 22.3255 4.62513 22.3268 4.5207 22.3281C3.81942 22.3346 1.95609 22.3507 1.80545 24.5369C1.70798 25.8774 2.42762 26.8265 2.97826 27.4244C3.50295 27.9969 4.09727 28.5779 4.87767 28.9532L4.92324 28.9745L4.97007 28.9894L5.42958 29.1324L6.07769 29.3342C7.27962 29.7108 8.70749 29.7535 9.99613 29.452C10.9651 29.1725 11.4468 28.9797 12.5449 28.4699L12.6595 28.7455C12.7247 28.8969 12.7886 29.0476 12.8588 29.1816L13.2278 28.312C13.35 28.5999 13.4532 28.8412 13.4905 28.9221L12.8626 29.1874L12.8664 29.1951L12.8576 29.199C13.1057 29.802 13.4051 30.4768 13.6038 30.9239C13.6772 31.0895 13.7525 31.259 13.7956 31.3586L13.7823 31.3651C13.9057 31.7229 14.2766 32.7386 14.4336 33.0861C14.876 34.0539 15.4159 35.7057 15.619 36.3261C15.6437 36.4005 15.6728 36.4918 15.7121 36.5823L15.7064 36.5836C15.7817 36.8353 15.8627 37.085 15.9406 37.3277C16.1127 37.8608 16.2747 38.3641 16.3899 38.8869C16.4222 39.035 16.4526 39.1942 16.4842 39.3631C16.6482 40.23 16.852 41.3079 17.6159 41.9937C18.1279 42.4537 19.2609 43.102 21.0957 42.2758C21.7831 41.9659 23.5103 40.6622 23.8382 40.34L23.873 40.3057L23.9015 40.2675L24.6021 39.3566L24.8085 39.0874C24.9357 39.0396 25.1901 39.024 25.3673 39.0143C25.4452 39.0092 25.5249 39.004 25.6047 38.9969C26.2509 38.9412 27.1604 38.6152 27.8294 37.3846C28.5155 36.1211 28.2959 34.8685 27.8066 33.8074C28.7288 34.5489 29.7978 35.0645 31.0105 35.3324C32.7327 35.7115 35.6479 35.2664 37.079 34.0222C37.3752 33.7635 37.5271 33.4348 37.6492 33.1708C37.6777 33.1087 37.717 33.0227 37.7467 32.9696C37.7651 32.9644 37.786 32.9593 37.8037 32.956C37.8948 32.9347 38.0075 32.9081 38.1315 32.8551C38.5595 32.6743 38.9447 32.4021 39.2613 32.0567L39.2841 32.0328C39.2841 32.0341 39.3043 32.0076 39.3043 32.0076L40.286 30.7537C41.2841 32.1577 43.0702 32.1615 44.5285 32.1615H44.5582L44.5874 32.1577C44.7342 32.1447 44.8817 32.1162 45.0519 32.0807C45.5456 31.9823 46.3709 31.8154 48.2058 31.8736C48.7685 31.8885 49.1742 31.5676 49.478 31.2985C49.7754 31.5437 50.1084 31.8076 50.5014 31.9642L50.5198 31.972L50.5387 31.9784L50.8647 32.0871L51.2147 32.2036L51.2691 32.2224L51.3217 32.2301L51.6755 32.2845C52.028 32.3983 52.9597 32.6118 55.2528 31.4453C55.9414 31.0837 56.592 30.6062 57.0933 30.0957L57.1212 30.0666L57.1446 30.0375L57.2231 29.9366C57.3218 30.064 57.4395 30.1844 57.5775 30.2944C57.9465 30.5848 58.3687 30.7395 58.7611 30.7395C59.0294 30.8352 59.3522 30.81 59.6883 30.7822C59.737 30.7783 59.8035 30.7718 59.8244 30.7718C60.1301 30.7867 60.4497 30.6922 60.706 30.6165C60.7801 30.5939 60.8497 30.5738 60.9067 30.5596L61.2978 30.46C61.9668 30.2892 62.5985 30.1261 63.2453 30.0026C63.6498 29.923 64.0523 29.8835 64.4776 29.8421L64.8137 29.8091L64.8485 29.8052L64.8795 29.7988L65.2391 29.7244L65.5682 29.6564C65.5524 29.6603 65.8441 29.606 65.8441 29.606L66.0916 29.5607L66.1524 29.549L66.2119 29.5277C66.422 29.4468 66.5986 29.3459 66.7568 29.232C67.0847 29.7334 67.4714 30.1468 67.9214 30.4639C68.8461 31.1134 69.967 31.1878 71.0512 31.2609C71.4594 31.2875 71.8449 31.314 72.2107 31.3683C72.605 31.4279 72.9955 31.5126 73.4101 31.6019C73.8291 31.6931 74.262 31.7876 74.7019 31.8523C75.1988 31.9293 75.7475 32.0496 77.402 32.7367C77.4722 32.7658 77.6267 32.8454 77.7754 32.9211C78.5469 33.3125 79.1045 33.5732 79.5495 33.5467H79.5609C79.8381 33.7136 80.1508 33.658 80.3444 33.6211C80.3553 33.6199 80.366 33.6182 80.3767 33.6159C80.9122 33.539 81.447 33.2459 81.7761 32.8499C81.8476 32.7613 81.9084 32.6668 81.9729 32.5659C81.9951 32.5303 82.0261 32.4837 82.0571 32.4359C82.5578 32.5989 83.2527 32.6875 83.8584 32.6371C84.8028 32.5601 86.4914 32.6358 87.6693 32.7509C89.494 32.9263 91.4801 33.6153 92.7327 34.5036C92.9206 34.6375 93.1453 34.8323 93.3827 35.038C93.9871 35.5614 94.672 36.154 95.3954 36.3119C95.9713 36.4355 96.6157 36.3585 97.1201 36.1088L97.1574 36.0913L97.1897 36.0699L97.2024 36.0622V36.0751C97.2036 36.2446 97.2049 36.5008 97.3334 36.7713C97.6461 37.437 98.1828 38.0283 98.9233 38.5304L99.4733 38.9969L99.5379 39.0512L99.6107 39.0868L100.503 39.5306L101.394 39.9732L101.475 40.0126L101.563 40.0301L102.259 40.1731L102.708 40.2656C103.342 40.4526 103.906 40.5574 104.422 40.5839C104.809 40.6001 105.26 40.6195 105.651 40.5425C105.779 40.516 105.884 40.4765 105.968 40.4455L106.018 40.428L106.073 40.4785C106.179 40.5742 106.308 40.6945 106.475 40.7806C106.855 40.974 107.36 41.0129 107.888 41.0381L107.924 41.0394C111.797 41.2264 115.48 38.8241 117.308 34.9235C117.65 34.1892 117.88 33.2265 118.042 32.4695C118.067 32.3556 118.081 32.2508 118.093 32.1589C118.099 32.1111 118.106 32.0645 118.114 32.0211C118.121 32.0095 118.132 32.0011 118.14 31.9869C118.206 31.8678 118.296 31.6427 118.198 31.3509V31.3509Z" fill="white"/>
<path fill-rule="evenodd" clip-rule="evenodd" d="M117.513 31.505C117.509 31.3911 117.504 31.2773 117.5 31.164C117.401 30.585 117.602 29.9031 117.385 29.3758C117.47 29.3758 117.435 29.3667 117.42 29.2962C117.378 29.1241 117.281 28.9501 117.242 28.7896C117.126 28.3322 117.058 27.9369 116.881 27.5222L116.589 27.0221C116.551 26.8907 116.51 26.7568 116.47 26.6242C116.394 26.3751 115.944 25.6854 115.751 25.5023C115.623 25.4188 115.492 25.3354 115.363 25.2532C115.204 25.1393 115.051 24.9892 115.126 24.7576C115.126 24.6502 115.012 24.6632 114.943 24.5959C114.683 24.3468 114.442 24.0472 114.149 23.8564C113.074 23.1421 113.033 23.0651 113.028 23.0451C113.28 22.7319 113.287 22.7384 113.664 22.2829C113.943 21.94 114.723 20.8919 115.075 20.3355C115.429 19.7694 115.734 19.0331 115.834 18.3441C115.878 18.0297 115.864 17.657 115.754 17.3911C115.274 16.2634 113.213 14.9339 112.178 14.5068L111.226 14.1439L110.27 13.8463C110.117 14.0417 110.054 14.0785 109.946 14.0087C109.897 13.8825 109.933 13.8573 109.858 13.832C109.078 13.5558 106.947 13.2523 106.372 13.9621C106.146 13.9621 105.949 13.8016 105.75 13.7292C105.334 13.5758 104.591 13.4206 104.169 13.6729C103.765 13.6729 103.307 13.8029 103.04 14.0772C103.04 14.0054 103.052 14.0164 102.983 14.0287C102.487 14.1096 101.298 14.8853 100.95 15.2903C100.719 15.2903 100.529 14.3289 100.391 14.1102C100.283 13.9447 100.139 13.807 99.9698 13.7078C98.5704 12.945 96.7546 12.6778 95.1362 12.3744C94.4824 12.2521 93.8039 12.0295 93.1001 12.0923C92.7735 12.1214 92.533 12.2858 92.252 12.4029C92.252 12.3123 91.2184 11.7876 91.0652 11.6524H91.1222L104.743 11.468L111.943 -0.329747L14.1409 -0.345276L21.305 11.5527C21.305 11.5527 23.9664 11.5437 24.7006 11.556C28.1127 11.6122 31.459 11.4841 34.8685 11.5941V11.6524H34.9249V11.7099C34.7679 11.7733 34.6109 11.8342 34.454 11.8956C33.7407 12.1628 33.0223 12.3304 32.6324 13.3377C32.1134 13.4348 32.3729 12.4695 30.802 12.76C29.8596 12.8752 28.4918 13.0576 27.7095 13.4186C27.4323 13.5448 27.0443 13.955 26.7475 13.8825C26.1152 13.7162 24.5095 13.3449 22.9506 14.7702C22.6436 14.7702 22.0696 13.9478 21.7771 13.7201C21.2322 13.2983 20.6562 12.98 19.9524 12.892C17.9669 12.6416 12.5504 16.7092 12.1637 18.7536C11.1333 18.7536 10.4851 19.3799 9.77248 20.0023C8.89841 20.7638 8.03193 21.6961 7.05407 22.292C6.48444 22.6362 5.69581 22.9745 4.98947 23.0011C4.50402 23.1453 2.62613 22.6394 2.49195 24.5868C2.42106 25.5573 2.88183 26.2929 3.47868 26.9412C3.98185 27.4898 4.50908 27.999 5.16985 28.316C5.54011 28.4312 5.90911 28.5451 6.2781 28.6609C7.35977 28.9992 8.67688 29.0374 9.83957 28.7657C10.8776 28.4661 11.2902 28.283 12.8985 27.5286C13.1687 28.1808 13.5744 29.1299 13.4934 28.9261C13.984 30.1205 14.6669 31.5671 14.4321 31.1297C14.5593 31.4972 14.9194 32.4819 15.0587 32.7873C15.6485 34.0774 16.3751 36.4505 16.3644 36.3761C16.5992 37.1583 16.8834 37.9231 17.0619 38.7331C17.2593 39.6389 17.3581 40.8254 18.0701 41.464C18.3891 41.7519 19.2454 42.3387 20.8157 41.6309C21.4189 41.3592 23.0702 40.1157 23.3582 39.8317C23.6879 39.4046 24.0164 38.975 24.3449 38.548C24.6576 38.3119 25.1411 38.3294 25.5468 38.2951C26.3355 38.2258 26.8671 37.7011 27.2254 37.0425C28.2222 35.2038 26.8722 33.3677 25.8133 32.0536C25.1928 31.284 24.6266 30.4702 24.119 29.6184C24.0481 29.5006 23.8082 29.2302 23.8557 29.0879C23.8557 29.0665 21.2404 24.9685 20.4847 22.9267C20.4455 22.8193 20.2271 22.774 20.2942 22.6743C20.7778 21.9652 23.2576 21.9775 23.3474 21.8313C23.6158 21.3927 24.1677 24.733 24.2721 24.9116C24.724 25.6847 24.5709 25.479 24.6639 26.4508C24.7785 27.0272 25.1778 28.2895 25.2215 28.3665C25.3203 28.6421 25.419 28.919 25.5184 29.194C25.6867 29.6922 25.9633 30.3728 26.2494 30.805C26.5456 31.2546 26.7861 31.7289 27.1266 32.1533C28.1868 33.4686 29.5564 34.289 31.1558 34.6429C32.8115 35.0078 35.4603 34.5025 36.6306 33.4841C36.9749 33.1833 37.061 32.6049 37.3154 32.4024C37.4743 32.2736 37.6832 32.2807 37.8648 32.2037C38.2281 32.0472 38.4825 31.8628 38.7648 31.5645C39.1319 31.098 39.499 30.6296 39.8661 30.1593C39.9807 29.9936 40.1009 29.7219 40.3016 29.6514C40.506 29.5757 40.6016 29.9354 40.6636 30.0506C41.3978 31.4442 42.9617 31.4545 44.527 31.4545C44.9985 31.4131 45.7339 31.0883 48.2264 31.1679C48.7062 31.1809 49.0448 30.6943 49.4403 30.4161H49.4967C49.8885 30.7092 50.2961 31.1252 50.7511 31.307L51.4271 31.5335C51.5613 31.5548 51.6948 31.5749 51.8296 31.5943C52.0024 31.6512 52.7157 31.9469 54.943 30.8134C55.5234 30.5086 56.1253 30.0829 56.6038 29.5951C56.7962 29.3499 56.9867 29.1021 57.1772 28.8569V28.8C57.2867 28.8 57.4513 28.9501 57.5165 29.0296H57.5728C57.5728 29.5679 58.3988 30.1541 58.9285 30.0118C58.9285 30.1774 59.6912 30.0583 59.8317 30.0661C60.1247 30.0797 60.4722 29.9399 60.7425 29.8727C61.533 29.6715 62.3178 29.4618 63.114 29.3078C63.6577 29.2017 64.1856 29.1636 64.7407 29.106C64.9704 29.0594 65.2008 29.0115 65.4293 28.963C65.6097 28.9313 65.7875 28.897 65.9685 28.8647C66.354 28.7178 66.5964 28.4642 66.8907 28.1646C66.8907 28.0158 66.9932 28.2533 67.0059 28.2785C67.3078 28.9106 67.7306 29.4728 68.3103 29.8824C69.3907 30.6419 70.9534 30.4659 72.3092 30.671C73.1408 30.7959 73.9643 31.0301 74.7991 31.155C75.37 31.2436 75.9883 31.3885 77.6586 32.084C78.0143 32.2322 79.1802 32.9167 79.5441 32.8423C79.7137 32.8423 79.7593 32.8041 79.8827 32.9005C79.8827 33.0079 80.1941 32.9284 80.2783 32.918C80.627 32.8675 81.0138 32.6741 81.2473 32.3946C81.4093 32.1934 81.6922 31.5833 81.9682 31.6454C81.9916 31.6745 82.7916 32.0181 83.7993 31.9346C84.8486 31.8473 86.6044 31.9372 87.7316 32.0485C89.5639 32.2251 91.6925 32.9077 93.1241 33.9234C93.8127 34.4125 94.7324 35.4464 95.5368 35.6217C95.966 35.7143 96.4489 35.656 96.816 35.4736C96.952 35.3849 97.0856 35.297 97.2229 35.2083C97.2229 35.1126 97.2552 35.1501 97.3356 35.1501C97.3356 35.2219 97.8312 35.5797 97.8723 35.8035C97.9128 36.0384 97.8527 36.2545 97.9514 36.4641C98.2483 37.0936 98.7685 37.5873 99.3382 37.9664C99.5299 38.1294 99.7179 38.2899 99.9078 38.4503C100.503 38.746 101.097 39.0391 101.693 39.3361L102.856 39.5735C103.35 39.7217 103.899 39.8478 104.451 39.8756C104.784 39.8892 105.198 39.9099 105.514 39.8465C105.723 39.8025 105.907 39.6712 106.138 39.7023C106.373 39.7301 106.571 40.0374 106.781 40.1461C107.071 40.2942 107.618 40.3156 107.954 40.3318C111.871 40.52 115.123 37.9412 116.682 34.6137C116.991 33.9532 117.208 33.0468 117.364 32.3137C117.414 32.0789 117.414 31.8421 117.498 31.6273C117.594 31.6279 117.537 31.5684 117.513 31.505V31.505ZM33.3267 24.9433C33.1451 25.6142 32.9983 25.3186 32.94 25.1989C32.7577 24.821 32.8008 24.1346 32.7685 24.0919C32.5691 23.8189 32.666 21.821 32.6698 21.3843C32.5653 21.1714 32.359 20.8091 32.271 20.7172C32.271 20.441 32.6096 19.97 32.6539 19.618C32.709 19.1722 32.6577 18.7142 32.6666 18.2341L32.7229 16.9065C32.8571 16.627 32.947 17.4079 32.9913 17.547C33.1134 17.9423 33.4628 20.5277 33.4267 21.0097C33.3653 21.5881 33.6229 23.8376 33.3267 24.9433V24.9433ZM50.0619 17.1951C49.9701 17.1951 49.8853 17.3775 49.8024 17.4331C49.6448 17.5088 49.4866 17.5826 49.3277 17.657C49.1581 17.6771 48.9884 17.6952 48.8195 17.7146C48.6182 17.7146 48.4068 17.7385 48.2542 17.8304C48.0074 17.8304 47.7707 17.7579 47.753 17.4855C47.7125 16.9117 48.646 17.0469 49.0435 17.0035C49.2517 16.9524 49.4581 16.9007 49.6663 16.8483C49.8055 16.924 49.9119 16.9906 50.0055 17.1375C50.0802 17.1375 50.0619 17.1168 50.0619 17.1951ZM57.5741 24.6425V24.6994C57.4981 24.6994 57.5177 24.7182 57.5177 24.6425C57.3373 24.6425 57.2089 24.4367 57.057 24.372C56.6721 24.2051 55.424 23.8376 55.1227 23.6312C54.812 23.4242 55.2094 23.2243 55.2588 23.0826C56.2702 23.0826 56.9639 22.2079 57.7443 21.6974C57.85 21.7505 57.9734 21.6541 57.9753 21.9426C57.9728 22.2693 57.726 24.4639 57.5741 24.6425V24.6425ZM71.1762 18.8022C70.8598 19.0584 70.5408 19.323 70.2578 19.6445C69.7167 20.2495 68.4072 24.876 68.2357 24.9556C68.0838 25.0248 67.473 27.0292 67.2306 26.5084C67.0837 26.1849 67.092 25.1801 66.9983 24.4283C66.8413 23.1583 66.9439 22.7235 66.5894 22.1593C65.8723 21.775 66.7799 21.2562 66.7799 21.2355C66.797 20.8693 66.7673 20.7612 66.7723 20.6564C66.8154 19.6943 66.6723 15.6171 67.2875 15.8079C68.1996 16.0247 70.787 16.7862 71.211 17.6699C71.356 17.9734 71.2332 18.4133 71.2977 18.7523C71.2218 18.753 71.2231 18.7614 71.1762 18.8022V18.8022ZM85.3468 11.8238C85.3024 12.1719 85.2562 12.5187 85.2132 12.8648C85.2018 13.1967 85.229 13.5254 85.1847 13.8443L85.0252 15.5802C84.8841 16.5312 84.7569 17.4765 84.5455 18.4004C84.3069 19.4233 83.822 21.0601 83.7246 22.1095C83.7075 22.2939 83.529 22.3334 83.4182 22.433C83.02 22.7939 82.7562 23.2844 82.6714 23.8214L78.3314 23.5128L78.534 22.7785C78.6808 22.2538 78.5935 21.3752 79.0112 21.0821C79.1289 20.9993 79.4701 20.2236 79.5701 19.9894C80.2473 18.3907 81.0125 17.5612 82.0043 16.1211C82.579 15.2819 83.3119 14.5625 83.6524 13.6075C83.7948 13.2071 83.6524 12.5937 83.4334 12.2883C83.2879 12.0852 83.0752 11.8717 83.1024 11.5941H85.305V11.6524C85.3961 11.6524 85.3537 11.7462 85.3468 11.8238V11.8238ZM102.056 27.7279C101.847 27.8314 101.639 27.9362 101.431 28.0411C101.005 28.294 100.516 28.6311 99.9895 28.6829C99.9895 27.7363 99.9078 27.2893 99.0723 26.9224C98.9027 26.8467 98.5989 26.7846 98.4964 26.6028C98.385 26.4055 98.9761 25.0209 99.142 24.8728V24.8146C99.4439 24.9614 99.4869 25.1736 99.6844 25.4188C99.9318 25.7262 100.165 26.0244 100.458 26.2955C100.67 26.4928 102.137 27.4517 102.152 27.4995C102.177 27.603 102.131 27.6736 102.056 27.7279V27.7279ZM107.614 32.0323V32.0905H107.218C107.218 32.185 106.905 32.0957 106.822 32.0802C106.328 31.9889 105.82 31.758 105.459 31.4002C104.882 30.8302 104.353 29.7122 105.184 29.1461C105.39 29.2509 106.221 29.6287 106.314 29.7801C106.583 29.7801 106.851 30.0292 107.068 30.1528C107.403 30.3411 107.788 30.5294 108.068 30.816C108.597 31.3562 108.173 31.8537 107.614 32.0323V32.0323Z" fill="black"/>
<path fill-rule="evenodd" clip-rule="evenodd" d="M16.6699 0.9897L22.3162 10.1283L43.8116 10.1555C43.8116 10.1555 51.0023 8.19187 53.4131 9.98206C53.5175 9.95489 53.7605 9.7168 53.9846 9.67216C54.3011 9.60487 54.5916 9.7168 54.8795 9.75109C55.5555 9.82743 56.2068 9.8669 56.9144 9.8669C57.1207 9.84684 57.3296 9.82873 57.5353 9.80932C57.71 9.73686 57.9499 9.75109 58.1568 9.75109L58.5518 9.69351L58.9474 9.63593C59.2898 9.41983 59.8562 9.29303 60.3012 9.30015C60.5708 9.30338 60.8233 9.39008 61.0879 9.32732C61.8411 9.08017 62.5955 8.83303 63.3493 8.58394C65.5424 7.74869 70.052 7.75775 71.9793 8.29151L72.8881 8.61241C73.1046 8.7431 73.3198 8.87249 73.5343 9.0006C73.7236 9.053 73.9287 9.00383 74.1375 9.00771L74.8692 9.08341C75.4895 9.25292 76.1116 9.42242 76.7319 9.58999C76.9249 9.64757 77.1173 9.70774 77.3078 9.76532C77.6996 9.81967 78.0598 9.5997 78.4832 9.6644L80.0756 10.1231L104.012 10.0901L109.446 1.00588L16.6699 0.9897V0.9897Z" fill="white"/>
<path fill-rule="evenodd" clip-rule="evenodd" d="M81.88 25.8616C81.7047 25.628 81.3041 25.5924 81.0148 25.5277C80.749 25.4656 80.523 25.4203 80.5819 25.4294C78.3565 25.1033 77.0116 25.322 75.9464 25.685C75.1679 25.9502 74.9128 26.4536 74.6932 26.702C74.5476 26.8664 74.2122 26.9181 74.2318 26.7195C74.3432 25.989 75.2267 25.4799 75.7103 24.939C76.2939 24.2816 77.6388 21.7668 76.7932 20.9827C76.5413 20.7478 76.2211 20.4716 75.8685 20.4502C75.359 20.4153 74.9527 20.8035 74.5913 21.0888C74.4824 21.1735 73.1299 23.3519 73.3602 22.0308C73.4678 21.7332 74.2318 21.1393 74.2318 21.0616C74.3147 20.9807 74.4704 20.8701 74.5039 20.6611C74.5337 20.4767 74.0875 20.2839 74.4584 20.196C74.4957 20.1901 74.5324 20.1869 74.5672 20.1811C74.7527 20.1526 74.9407 20.1093 75.0603 19.9598C75.2755 19.6835 75.1071 19.2779 75.1021 18.924C75.0945 18.5701 75.1305 18.1521 75.2305 17.8455C75.8521 15.9323 76.1154 17.5893 76.5628 15.2472C76.6458 15.0757 77.2882 15.3481 76.6692 16.4396C76.5458 16.633 76.5097 16.6848 76.4084 16.8963C76.1489 17.4249 75.5293 18.5869 75.6318 19.2074C75.6774 19.4979 75.8976 19.7541 76.0704 19.9812C76.2692 20.2451 76.6084 20.5227 76.9445 20.5427C77.2154 20.557 77.3673 20.4645 77.5464 20.2949C77.6578 20.1164 77.7679 19.9378 77.8787 19.7573C78.2546 19.0844 78.6325 18.4116 79.0085 17.7361C79.7465 16.4642 80.7984 15.3578 81.4997 14.0664C81.6452 13.7921 81.7566 13.3793 81.6319 13.0636C81.4269 12.5506 78.4895 11.5419 77.8458 11.5529C77.6173 11.5568 77.4565 11.5296 77.3078 11.6959C76.9072 12.1345 77.3413 14.267 76.4907 14.1907C76.4078 13.8749 76.6958 13.446 76.7059 13.0339C76.7382 11.4714 76.4673 11.4824 75.4242 11.1595C75.047 11.0418 74.9001 10.9861 74.3552 10.8671C73.9482 10.937 73.9894 11.1615 73.9299 11.4287C73.9128 11.6558 73.8963 11.8835 73.878 12.11C73.8185 12.8805 73.7558 13.6491 73.6368 14.3653C73.6122 14.597 73.5875 14.8273 73.5615 15.0583C73.3837 15.7441 73.2735 16.4874 73.1299 17.1855C73.0482 17.5757 72.9419 17.9904 72.8406 18.3928C72.7912 18.5804 72.7083 18.7066 72.7033 18.9285C72.6887 19.3833 73.1014 19.582 73.1014 19.9061C72.7368 19.8589 72.3767 19.8446 72.1222 20.1157C71.4203 20.8533 71.1779 21.9331 70.9342 22.9016C70.7279 23.7155 70.4209 24.4835 70.1298 25.2599L69.4684 26.7661C69.3323 27.0553 69.1348 27.2804 69.0532 27.591C68.9829 27.8562 69 28.2444 69.1532 28.4618C69.6304 29.1431 72.1893 29.1431 73.0932 29.2544L74.971 29.5817C75.9078 29.7817 76.7894 30.0521 77.6806 30.3413C78.2471 30.5231 79.5116 31.2904 80.0414 31.1423C80.73 30.9462 81.1883 29.5791 81.3996 28.9703C81.6902 28.1202 80.5357 27.6815 79.9408 27.7016C79.6635 27.7094 79.2857 27.8724 79.0287 27.9035C78.5641 27.9578 76.9989 28.0044 76.9002 27.5153C76.904 27.2791 77.0154 27.3069 77.0977 27.3044C77.5141 27.5062 77.7432 27.47 78.2414 27.47C78.6834 27.3851 79.13 27.3272 79.5787 27.2966C79.7211 27.2875 79.6148 27.2461 79.6123 27.2196C78.8667 27.1523 78.3907 27.3179 78.3907 27.2248C78.2945 27.153 78.2521 27.0643 78.4515 26.9899C78.9262 26.7687 79.1585 26.79 79.5407 26.8359C80.1072 26.889 80.2876 27.2215 80.9313 27.1167C81.0844 27.1297 81.3971 26.0706 81.6307 26.2575C81.8642 26.724 81.6072 27.1659 81.2984 27.2681C80.9977 27.3678 80.9104 27.4247 80.9794 27.5638C81.0971 27.7948 81.4319 27.7152 81.6022 27.6647C82.0497 27.5334 82.2351 26.3378 81.88 25.8616V25.8616ZM71.6532 24.9312C71.5001 25.3 71.3305 25.9095 71.3811 26.3313C71.4469 26.9078 71.1241 26.7182 71.1241 26.7648C70.9463 26.4374 70.7077 25.7361 71.7438 24.0416C71.7646 23.8838 71.8115 23.7874 71.8438 23.7828C72.5096 23.6955 71.7969 24.3308 71.6532 24.9312V24.9312ZM73.809 27.5418C73.7687 27.616 73.7026 27.672 73.6238 27.6987C73.5451 27.7254 73.4593 27.7209 73.3837 27.6861C72.8609 26.8987 73.3723 26.2569 73.8191 25.5756C73.9216 25.4165 73.9514 25.0891 74.2318 25.0438C75.4369 25.049 74.0217 26.0272 73.8286 26.5377C73.7065 26.8625 73.809 27.1691 73.809 27.5418ZM40.2071 22.626C40.1615 22.1537 39.7716 21.6769 39.2963 21.8665C39.0969 21.9946 38.8975 22.1246 38.6963 22.2521C38.345 22.4384 38.0171 22.6403 37.7342 22.9515C37.5576 23.1423 37.4621 23.3746 37.3298 23.5855C36.9804 24.1542 37.2715 24.6899 37.0684 24.8717H36.8988C36.5931 23.8339 36.8386 22.9987 37.6874 22.5031C38.6988 21.9137 38.3475 21.8988 37.7443 22.2456C37.407 22.4332 37.2057 22.6416 37.1247 22.505C36.7893 21.9221 36.2051 21.235 36.7861 21.235C37.1456 22.0321 38.2823 21.5818 38.9887 21.5818C39.3361 21.4026 39.6608 21.5126 39.8925 21.1198C40.5134 20.0484 39.7792 14.2799 39.1842 13.4033C38.8703 12.9394 38.4804 12.8242 37.9152 12.8061L37.5254 13.0927C37.3931 13.3269 37.2608 13.5624 37.1266 13.796C36.8032 14.1894 36.3165 14.4947 36.1823 15.0033C36.0747 15.405 36.131 15.8418 36.0639 16.2714C36.0392 16.4247 36.1057 16.7152 35.7905 16.6246C35.3297 16.4913 35.6032 15.0408 36.0373 14.2127C36.1836 13.9707 36.3323 13.7287 36.4785 13.4854C36.512 13.4149 36.6165 13.2092 36.5038 13.2092C36.2709 13.0901 36.0462 13.1962 35.8203 13.2435C35.1405 13.3806 33.8101 13.664 33.667 14.4863C33.5613 15.0854 33.9671 16.0145 34.0993 16.567C34.3943 17.8028 34.6133 19.089 34.7386 20.4263C34.8835 21.9849 34.8006 23.6521 34.6348 25.1583C34.5677 25.5575 34.5025 25.958 34.4354 26.3565C34.3525 26.6127 34.2715 26.8696 34.1886 27.1239C34.1234 27.2895 34.0576 27.4577 33.9911 27.624C33.9272 27.6971 33.6576 28.128 33.5746 28.3078C33.4493 28.4773 33.3259 28.6313 33.2006 28.8157C33.1075 28.9697 32.6696 29.9253 32.6556 30.1336C32.6221 30.5089 32.7208 30.701 32.7208 30.9915H32.6645V31.0497C32.5677 31.0219 32.4354 31.2859 32.2442 30.9029C31.9727 30.2559 32.698 29.1386 32.9683 28.6423C33.062 28.4676 33.198 28.2231 33.1715 27.9953C33.1259 27.6162 32.5784 27.5379 32.329 27.3509C32.0645 27.1523 31.8702 26.8353 31.7752 26.5409C31.5847 25.956 31.4645 25.2748 31.3835 24.6368C31.3132 24.0986 31.1822 21.3812 30.9809 21.1684C30.6739 20.8436 30.0967 20.9827 29.698 20.8365C29.486 20.7569 29.2853 20.6993 29.0695 20.6184C28.9163 20.5609 28.8258 20.5084 28.5986 20.3693C28.4467 19.6337 29.5429 20.7789 30.01 20.5434C30.1005 20.5266 30.1923 20.5123 30.2822 20.4962C30.5417 20.4405 30.8277 20.2238 30.9759 19.9896C31.1328 19.7366 31.0657 19.3549 31.0955 19.0424C31.1822 18.1017 31.2683 17.181 31.3145 16.2131C31.3303 15.8521 31.3746 15.4646 31.2689 15.1294C31.2037 14.925 31.0233 14.7788 30.8347 14.7089C30.2575 14.4909 29.5429 14.7393 28.9992 14.8551C28.5897 14.9399 28.1043 15.1042 27.7992 15.3986C27.2378 15.9323 27.3859 17.6663 27.5505 18.4006C27.6372 18.7487 27.7498 19.0599 27.8486 19.5729C27.8555 19.7592 27.2289 19.153 26.9891 19.5082C25.7238 21.7384 25.1574 20.6443 25.7821 20.4082C26.1523 20.1073 26.308 19.9514 26.5232 19.5373C27.2232 18.1735 27.879 14.8137 25.2011 15.548C24.7333 15.6735 24.1776 15.7156 23.8244 16.0669C23.6599 16.228 23.5333 16.4713 23.563 16.7217C23.6143 17.1752 23.8333 17.5517 24.001 17.9542L24.5567 19.4545L25.1922 21.8147C25.3511 22.5697 25.3637 23.8119 25.8802 24.3567C25.9739 24.4595 26.0886 24.54 26.2161 24.5925C26.3436 24.6449 26.4809 24.668 26.6182 24.6601C26.8935 24.6401 28.3163 23.9944 28.3163 23.8339C28.3359 23.8339 29.0663 22.9573 29.3929 22.9392C29.8233 22.899 29.0594 23.4153 28.3638 24.0953C27.227 25.2101 26.4492 24.818 26.2226 25.6953C26.103 26.1514 26.3903 27.4706 26.4966 27.9345C27.0663 30.4351 28.6764 32.8386 31.3113 33.3148C31.9341 33.3996 32.5183 33.3588 33.0607 33.3588C33.5265 33.2818 33.9133 33.2792 34.3595 33.1279C35.431 32.4608 36.1639 32.5352 36.2025 30.4752C36.2038 30.3639 36.1367 30.4008 36.1279 30.0961C36.1279 29.924 36.269 29.9712 36.3367 30.0683C36.495 30.3309 36.5272 30.7508 36.8127 30.9236C37.2874 31.2128 37.7886 30.5658 38.038 30.2488C38.2019 30.0514 38.3665 29.8561 38.5285 29.6574C39.4779 28.1312 39.8064 26.2808 40.0817 24.4123C40.1545 23.8954 40.259 23.1708 40.2071 22.626V22.626ZM27.9764 18.8101L27.7486 18.4387C27.6777 18.0214 27.6087 17.6067 27.5384 17.1901C27.5315 17.1538 27.5372 16.939 27.6941 16.8478C27.7682 16.8478 27.8422 16.8278 27.8422 16.9054C27.9663 17.2211 27.8441 17.6003 27.9169 17.9445C27.9714 18.2071 28.0277 18.2945 28.2169 18.6264C28.4296 18.8463 28.115 18.8101 27.9764 18.8101ZM28.8796 24.5838C29.303 24.5838 27.6688 24.7785 29.4303 23.5312C29.81 23.2594 29.967 22.8311 30.122 22.3892C30.1379 22.3064 30.1803 22.2501 30.2917 22.3892C30.0815 23.7233 29.3682 24.1581 28.8796 24.5838ZM35.9418 18.0072C36.3791 17.9153 36.9443 19.153 36.6741 19.503C36.4285 19.4759 36.3424 19.164 36.3424 18.9292C36.0506 18.7344 35.7987 18.0324 35.9418 18.0072ZM37.581 30.2578C37.2741 30.3536 36.8696 30.384 36.6082 30.177C36.3949 30.0075 35.6272 27.8239 35.6449 27.4726C35.6557 27.2287 35.7684 27.0255 35.8835 26.8359C36.7234 25.749 36.6652 26.3177 36.1127 26.8534C35.8038 27.1517 35.8987 27.4143 35.9538 27.6356L36.3101 28.5718C36.4677 29.1392 36.4677 30.5089 37.4488 30.0967C37.5545 30.0514 38.0292 29.8147 38.0292 29.7215H38.1425C38.0665 30.0489 37.876 30.164 37.581 30.2578V30.2578ZM99.2298 15.4633C99.1987 15.2685 99.1222 15.0731 98.9589 14.958C98.624 14.7199 98.1835 14.6947 97.7823 14.5989C97.1626 14.4507 96.5632 14.2702 95.9221 14.1771C95.1037 14.0541 93.986 13.6698 93.1062 13.8827C92.4904 14.0289 92.3568 14.8156 91.9625 14.7684C91.734 14.7432 91.6176 14.0807 91.4891 13.926C91.3334 13.7397 91.1479 13.5993 90.9378 13.5307C89.8416 13.1665 88.5542 13.2312 87.3972 13.0073C87.358 12.9983 87.0403 13.0397 87.0004 13.0293C86.7706 13.1361 86.8238 13.1645 86.758 13.4492C86.6517 13.9021 86.6687 14.3983 86.6491 14.8823C86.5637 15.746 86.4808 16.6104 86.3959 17.4747C86.27 18.2252 86.1428 18.9777 86.013 19.7282C85.913 20.2387 85.682 20.7905 85.682 21.3521C85.682 21.9383 85.7478 22.386 86.22 22.7127C86.3656 22.7975 86.5016 22.8014 86.6466 22.8861C86.6896 22.9243 86.801 23.0414 86.7371 23.1436C86.2314 23.5376 85.3845 22.441 85.1212 22.9236C84.989 23.1624 84.8434 23.4723 84.7465 23.7194C83.4313 28.5854 82.9155 29.0506 83.0161 29.585C83.1028 30.0411 84.9966 29.0823 85.5307 28.4398C85.8029 28.0963 86.2884 28.6734 85.8162 28.8364C85.6124 28.9878 85.5086 29.0713 85.3788 29.1715C84.8485 29.5772 84.6567 29.8146 84.0092 30.0256C83.9155 30.0586 83.92 30.0508 83.7136 30.1252C83.5579 30.3187 83.8016 30.4383 83.9054 30.4383C83.8991 30.4144 88.0143 30.494 87.1105 30.4662L88.4517 30.5076C89.8302 30.6958 91.0922 31.0497 92.2986 31.5816C92.6239 31.7271 92.8954 31.918 93.2087 32.0856L94.1974 32.6957C94.6594 33.0593 95.2297 33.9165 95.9094 33.6726C96.6126 33.4164 98.0804 30.1472 98.2088 29.3676C98.2506 29.1049 98.2411 28.8054 98.0639 28.6294C97.7474 28.3188 96.174 27.8685 95.6917 27.8459C95.3949 27.8297 95.1006 27.9597 94.8474 28.0458C94.7537 28.0762 94.6024 28.1836 94.4531 28.2768C94.1999 28.4042 94.0961 28.5064 93.8879 28.5064C93.7974 28.4916 93.6866 28.4916 93.741 28.2768C93.8423 28.0225 94.1999 28.1959 94.1233 27.5049C94.0613 27.4376 93.9518 27.3535 93.8898 27.2862C93.536 27.1523 93.0961 27.1627 92.7056 27.1006C92.1385 27.0093 90.9676 26.6658 90.4011 26.8275C89.396 27.1096 89.7346 27.6997 89.2042 27.7411C89.1125 27.7385 88.9707 27.6841 89.0251 27.5819C89.296 27.0727 89.6397 26.9919 90.0511 25.7962C90.1549 25.4902 89.9846 25.0593 90.1175 24.7488C90.2397 24.4719 90.2289 24.2014 90.2163 24.1523C90.0137 23.3849 90.7036 22.9592 91.1283 23.0013C91.515 23.0317 91.4669 23.2212 91.2644 23.3591C91.1517 23.436 90.9638 23.4199 90.8429 23.5409C90.6486 23.7343 90.6188 24.0461 90.6745 24.2739C90.7745 24.677 91.0922 24.9034 91.4511 25.0548C91.8828 25.2353 92.4448 25.2127 92.922 25.2948C94.1309 25.5006 95.3006 25.9088 96.5987 25.9088C96.8531 25.8596 96.9734 25.6319 97.1107 25.4119C97.3778 24.9759 98.6361 22.2288 98.1702 21.8535C97.8886 21.6284 95.6531 21.2389 95.3208 21.4427C94.8759 21.7131 94.6569 22.9094 94.3505 22.419C94.2803 22.0974 94.6398 21.5689 94.5062 21.2984C94.2676 20.8203 91.7891 20.9859 91.2315 20.9969C91.0865 20.9989 90.5884 21.0293 90.3486 20.984C90.2524 20.993 90.1967 20.5673 90.3448 20.5311C90.3732 20.3726 90.9663 20.4101 91.2695 20.3111C91.6638 20.1778 91.6302 17.9982 91.6562 17.4424C91.6638 17.2729 91.6429 16.919 91.8011 16.9811C91.9467 17.0549 92.2942 18.2382 92.791 18.5597C93.0891 18.7525 93.4176 18.792 93.7676 18.8858C94.6069 19.1116 95.4278 19.2915 96.3107 19.4616C96.805 19.5548 97.4443 19.9378 97.9734 19.6687C98.1487 19.5787 98.3247 19.3924 98.4076 19.2158C98.5791 18.8425 98.624 18.418 98.7082 18.0033C98.8551 17.3861 99.0013 16.7689 99.1456 16.1517C99.1892 15.9181 99.2671 15.7162 99.2298 15.4633V15.4633ZM90.3283 29.3171C90.9378 29.1858 91.0574 28.9568 91.4125 28.9872C91.4296 29.5863 90.0416 29.6406 90.3283 29.3171ZM89.877 29.7215C90.253 29.5992 90.5492 29.6594 90.8846 29.629C91.6277 29.4711 92.3435 29.1528 92.9271 28.6824C93.0594 28.6358 93.2398 28.6029 93.1708 28.8908C93.0853 29.2272 90.5612 30.4895 89.8973 30.1013C89.7878 30.0392 89.7758 29.7991 89.877 29.7215ZM86.9042 26.7725C86.6915 26.7434 87.0042 26.3229 87.2865 25.8234C87.4004 25.6216 87.5833 25.4999 87.5915 25.0108C87.5928 24.8555 87.5409 24.6278 87.7808 24.6951C88.358 24.873 87.4061 26.7725 86.9042 26.7725V26.7725ZM88.6916 23.5441C88.746 23.832 88.7384 24.2771 88.684 24.5689C88.6751 24.9681 88.2688 26.2291 87.9561 26.3733C87.6928 26.4924 87.6422 26.4186 88.1561 25.3815C88.3302 24.8801 88.2859 24.118 88.1846 23.5719C88.0314 22.7632 86.8941 23.625 87.1447 22.9198C87.2447 22.7671 87.3833 22.8984 87.8827 22.3737C88.1137 22.0955 88.5067 21.4045 88.7131 21.5164C89.2321 21.7008 88.5156 21.7798 88.4397 22.5613C88.4086 22.8641 88.6916 23.2594 88.6916 23.5441V23.5441ZM89.8941 20.2225C89.5555 20.6695 88.984 20.8177 88.5764 21.1735C88.1859 21.5093 87.6726 22.3355 87.2168 22.4164C87.0251 22.4455 86.8928 22.3892 86.9396 22.3892C86.858 22.3388 86.8719 22.2631 86.9567 22.2016C87.1409 22.0987 87.3637 22.0696 87.5453 21.9674C87.8422 21.684 87.8764 21.2764 88.1757 20.973C88.37 20.841 88.6428 20.7006 88.8371 20.5686C89.1833 20.2904 89.3701 20.0239 89.7568 19.7638C89.7751 19.7638 89.9853 19.7334 90.0043 19.7334C90.3258 19.8595 90.0055 20.073 89.8941 20.2225ZM92.9265 18.002C92.3897 17.784 92.1663 17.2819 92.1366 16.7896C92.1005 16.613 92.2416 16.5677 92.3233 16.6492C92.484 16.8077 92.7151 17.4954 92.9473 17.7135C93.2309 17.9729 93.3581 18.1282 92.9265 18.002ZM97.7304 19.2326C97.5202 19.3426 97.262 19.3064 97.1063 19.2138C96.9569 18.9201 97.3487 18.9201 97.5683 18.8159C98.0196 18.6102 97.9069 17.762 98.1867 17.7982C98.488 17.9296 98.038 19.0702 97.7304 19.2326V19.2326ZM25.7909 35.2208L25.4751 34.7194C25.1061 34.0563 24.6156 33.4915 24.1745 32.8658C23.5536 31.9879 23.0187 31.0614 22.3757 30.2022C22.1535 29.8108 21.9307 29.4187 21.7067 29.0273C21.3111 28.3673 20.8364 27.765 20.5332 27.0598C20.025 25.8849 19.7478 25.3744 19.6421 25.3136C18.6041 25.3045 19.3016 26.8754 18.6003 26.6619C18.6142 26.1715 18.7978 25.8584 18.8971 25.4372C19.0965 24.5689 18.8193 23.568 18.2743 23.011C18.1066 22.8389 17.8205 22.5626 17.5844 22.5626C17.5104 22.4714 17.5262 22.3362 17.5629 22.2915C17.5996 22.2469 17.7079 22.3433 17.8452 22.2754C18.9959 21.7054 21.2991 20.4282 21.82 20.4282C21.9896 20.4082 22.1592 20.39 22.3282 20.37C22.5662 20.2477 22.8491 20.3034 23.0162 20.0497C23.3308 19.5658 22.6352 17.828 22.1023 17.8105C21.6288 17.7711 20.8035 18.6781 20.775 18.0719C21.1788 17.8429 21.389 17.7381 21.532 17.5433C22.4447 16.2862 21.1193 14.8189 19.8801 14.7412C19.3699 14.6765 18.9446 14.8784 18.1572 15.3132C18.3231 15.2194 13.8856 18.222 13.3388 19.4105C13.1337 19.855 13.335 20.4049 13.5825 20.7653C13.9458 21.2978 14.5989 21.6044 15.1622 21.783C15.4534 21.8749 15.9464 21.9008 16.1863 22.0968C16.2889 22.1815 16.2692 22.4481 16.1794 22.5329C15.9692 22.7224 15.1363 22.9754 15.0743 22.716C15.016 22.4759 15.0673 22.3206 14.8838 22.1576C14.4388 21.7895 14.0825 21.5585 13.7945 21.301C13.3692 20.9529 13.0217 20.3732 12.4407 20.3357C11.8426 20.2956 10.852 21.2868 10.3824 21.6724C10.3046 21.7358 10.1672 21.9286 10.0716 21.9286C9.65328 22.3433 9.78556 22.2566 9.21403 22.661C8.39629 23.2348 7.67855 24.074 6.73929 24.4085C5.92915 24.6951 5.29749 24.5715 4.63166 24.6614C4.38482 24.6944 4.23608 24.7966 4.17785 25.0632C4.09177 25.4449 4.38798 25.7516 4.61583 26.0007C5.89181 27.3891 7.08867 27.5282 8.9982 27.5282C9.13048 27.5082 9.33681 27.4991 9.46783 27.479C9.93683 27.3995 10.0697 27.3464 10.2406 27.2972C10.6482 27.0941 11.0558 26.889 11.4615 26.6858C12.2913 26.1928 13.2318 25.4249 13.7053 24.5379C13.673 24.5987 13.9648 23.9905 14.0743 23.9996C14.4622 24.0196 13.6983 24.4719 13.8287 25.674C13.8603 25.991 14.0192 26.2549 14.1515 26.5383C14.4394 27.1614 14.7129 27.7909 15.0021 28.412L16.049 30.7903C16.1616 31.0051 16.6224 31.2341 16.6452 31.3124C16.7123 31.5415 16.5129 31.808 16.5661 32.072C17.1028 33.6416 17.6395 35.2111 18.1743 36.7788L18.7193 38.5515C18.8288 38.9928 18.9098 39.555 19.2098 39.8959C19.4288 40.145 19.718 40.2298 20.0674 40.2298L20.1332 40.1968C21.0953 39.7872 22.2459 39.0516 22.5402 37.9175C22.5947 37.7053 22.5086 37.4283 22.4751 37.231C22.4288 36.9819 21.8769 35.721 21.7864 35.5088C21.6966 35.3735 21.6061 35.2387 21.5149 35.1044C21.4212 34.9109 21.3282 34.7201 21.2326 34.5266L20.6231 33.6571C20.2813 33.3071 19.8649 32.4097 18.5427 31.568C18.2705 31.3959 17.9072 31.3163 17.5914 31.2497C17.1781 31.1597 17.3003 30.963 17.4047 30.9061C18.0769 31.0717 18.5167 30.91 18.294 30.2313C18.2199 30.01 18.3167 29.9952 18.3167 30.01C18.3788 29.9331 18.4617 29.9343 18.5161 30.1757C18.537 30.2287 18.5579 30.2844 18.5781 30.3387C19.0984 31.4606 20.1972 32.2932 20.8795 33.3245C21.3067 33.9702 21.7016 34.6314 22.0111 35.336C22.2402 35.8614 22.4858 36.837 22.9586 37.209L23.0592 37.2847C23.0896 37.3061 23.1194 37.33 23.1478 37.352C23.8453 37.8269 24.8985 37.3863 25.4049 36.8538C25.7928 36.4443 26.0169 35.809 25.7909 35.2208V35.2208ZM15.3528 21.3786C14.9097 21.3359 14.3464 21.1755 14.3641 20.7155C14.6445 20.5524 14.6198 20.8539 14.8072 20.8662C15.5806 20.9083 15.7749 21.2221 15.3528 21.3786V21.3786ZM13.0742 24.4395C13.0217 24.3269 13.2084 24.3451 13.3989 24.2008C13.7375 23.9407 13.992 23.306 14.0097 22.8007C13.8717 22.3569 13.8401 22.2812 14.0818 22.1583C14.4065 22.2598 14.3464 22.5678 14.3451 22.8382C14.3382 23.2051 13.5477 24.6789 13.0742 24.4395V24.4395ZM14.4211 24.8717V25.1027C14.2743 25.3336 14.135 25.1408 14.1388 25.0444C14.2337 23.9083 15.1135 23.1934 15.1274 23.5635C15.0249 24.0746 14.4211 24.455 14.4211 24.8717ZM20.2946 18.464C20.125 18.7726 19.6047 18.9874 19.3908 19.4455C19.0218 19.5153 18.8908 19.4636 18.9952 19.1569C20.268 17.8066 20.2421 18.3081 20.2946 18.464ZM16.9806 21.0707C16.8338 21.116 16.4053 21.0564 16.6806 20.7731C17.3389 20.6307 17.3636 20.4573 17.8788 20.0368C18.1857 19.6001 18.4579 19.1543 18.7649 18.7163C19.3826 17.9923 19.5769 18.07 19.637 18.1748C19.5111 18.4886 19.0845 18.7823 18.8161 19.0857C18.3959 19.5871 18.1326 20.1287 17.6781 20.632C17.2977 21.0474 16.7401 21.1082 16.9806 21.0707ZM18.4313 28.9128C18.0553 29.2692 18.0503 28.9458 18.0269 28.8836C18.0408 28.3835 18.2193 28.4566 18.3199 27.5166C18.5775 27.2642 18.4965 28.1687 18.4313 28.9128ZM18.3731 26.2381C18.0819 26.4885 18.018 26.2782 17.9794 26.2V26.0848C18.0307 25.9683 18.1294 25.8609 18.2053 25.564C18.3288 25.2127 18.306 24.8199 18.2832 24.424C18.2478 24.2584 18.0927 23.8682 18.0927 23.8326C17.9636 23.5079 18.0699 23.5253 18.2053 23.5434C18.906 23.5467 18.6199 25.4611 18.3731 26.2381V26.2381ZM22.4409 35.7837C22.3364 35.5728 22.3105 35.3276 22.2307 35.1076C22.0687 34.6567 21.7934 34.2219 21.5269 33.8266L20.1427 32.0079C19.6079 31.3409 19.0642 31.0853 18.9952 30.2992C19.1984 30.0767 19.2864 30.657 19.4775 30.8388C20.7674 32.0784 21.8636 33.4255 22.4111 35.1367C22.4763 35.3399 22.6105 35.5463 22.6105 35.7837H22.4409V35.7837ZM115.835 30.6402C115.769 29.8444 115.61 29.1114 115.272 28.4618C115.046 28.0296 114.43 26.9123 113.886 26.8922C113.409 26.8748 113.038 27.0967 112.645 27.2474C112.4 27.3348 112.239 27.4648 112.13 27.2384C112.143 26.7771 113.533 26.7467 113.346 25.7975C113.302 25.5698 113.181 25.3414 113.004 25.2023C112.698 24.9597 112.381 24.8271 112.04 24.6575C111.227 24.2544 110.395 23.8916 109.548 23.5706C109.376 23.4794 109.205 23.3914 109.032 23.3015L108.257 23.0362C107.938 22.9049 106.565 22.5684 105.954 21.9447C105.08 21.0519 106.167 20.1617 107.047 20.0918C108.245 19.9941 109.419 20.3784 110.367 20.8507C110.693 21.0118 111.627 21.5805 111.963 21.5688C112.764 21.5384 113.968 19.3141 114.139 18.6283C114.198 18.3831 114.197 18.1107 114.078 17.9011C113.596 17.0516 111.184 15.8916 110.255 15.68C109.298 15.4613 108.299 15.2666 107.282 15.2019C106.906 15.2925 106.864 15.3462 106.703 15.5118C106.336 16.369 105.925 17.5239 105.606 17.3589C105.531 17.3395 105.417 17.3822 105.409 17.2489V17.0756C105.651 16.8407 105.828 16.5036 105.841 16.1497C105.851 15.7784 105.654 15.5273 105.346 15.4193C104.004 14.945 102.266 16.3251 101.442 17.2845C100.92 17.8888 99.6696 19.7799 100.189 20.5751C100.298 20.7433 100.439 20.8455 100.639 20.8138C100.954 20.7666 101.114 20.7957 101.124 20.9529C101.137 21.1748 100.59 21.4466 100.482 21.6077C100.346 21.805 100.285 22.0256 100.249 22.2786C100.024 23.7686 101.37 25.0108 102.451 25.6513C102.761 25.8344 103 26.134 103.49 26.0822C104.717 24.9273 103.684 24.2008 103.415 23.0673C103.268 22.472 103.568 21.5113 103.715 21.4052C103.842 21.3333 103.879 21.3961 103.945 21.4356C104.015 21.7306 103.582 22.1634 103.679 22.7295C103.757 23.2057 103.992 23.5053 104.182 23.9083C104.275 24.1096 104.303 24.3392 104.356 24.5657C104.517 25.2845 104.286 26.0654 104.6 26.6936C104.996 27.4823 105.954 27.7754 106.693 28.0749C107.081 28.2819 107.471 28.4922 107.857 28.6993C108.789 29.2123 109.67 29.7946 110.172 30.7981C110.554 31.5589 110.822 32.8477 110.335 33.6668C110.067 33.9625 109.798 34.2581 109.528 34.5538C108.934 35.5243 108.551 35.1691 108.579 35.1639C108.579 35.1257 108.629 34.9543 108.629 34.9148C109.26 34.5221 109.986 33.4416 109.986 32.6633H109.929C109.56 33.0638 109.189 33.5393 108.719 33.7677C108.376 33.9321 107.973 33.9333 107.556 33.9482C105.894 34 104.336 33.32 103.44 31.9646C103.186 31.5803 103.091 31.0446 103.004 30.5794C102.956 30.3607 102.991 30.1433 102.943 29.9246C102.898 29.8276 102.787 29.6794 102.69 29.6542C102.314 29.5572 100.98 30.199 100.968 30.6046C100.955 30.9495 101.287 31.229 101.345 31.5647C101.313 31.3629 101.701 32.5048 100.949 32.5113C101.308 31.7142 100.999 31.3538 100.913 31.1856C100.806 30.9773 100.689 30.7903 100.429 30.8142C100.058 30.8459 98.8089 31.8921 98.557 32.2305C98.1215 32.8057 98.5443 34.6418 99.2209 34.7033C99.3987 34.6159 99.9848 33.8719 100.161 33.9437C100.384 34.0323 100.055 34.2568 100.035 34.3138C99.8399 34.7861 99.2367 35.1956 99.4196 35.8109C99.5829 36.3569 100.185 36.9179 100.665 37.2174C100.85 37.3022 101.035 37.3869 101.218 37.4717L101.485 37.7007C101.744 37.8955 102.025 38.0391 102.32 38.1672C103.16 38.5321 105.23 38.8621 106.05 38.272C106.415 38.0067 106.506 37.5073 106.694 37.1359C106.738 37.0447 107.148 36.5303 107.148 36.5303C107.395 36.4165 107.401 36.5808 107.456 36.5808C107.397 37.0609 107.096 37.2543 106.978 37.6981C106.727 38.6382 108.058 38.8976 108.743 38.8976C108.876 38.8789 109.008 38.8608 109.139 38.8407C109.512 38.7359 109.887 38.6337 110.26 38.5289C110.884 38.3568 111.505 38.0475 112.057 37.7201C114.407 36.3304 116.078 33.6429 115.835 30.6402V30.6402ZM104.788 24.1212C104.731 24.1011 104.674 24.083 104.618 24.063C104.343 23.5803 103.868 23.1074 104.052 22.4468C104.508 22.1421 104.323 23.5842 104.844 23.8909C105.094 24.162 104.847 24.1464 104.788 24.1212V24.1212ZM104.92 18.2744C104.608 18.5319 104.3 18.6911 104.027 18.9563C103.791 19.2552 103.596 19.5878 103.359 19.8867C103.296 19.9572 103.22 20.0077 103.16 20.1248C102.97 20.5272 102.925 20.601 102.755 20.7724C101.603 21.8606 101.39 21.1386 101.66 20.9419C102.386 20.7976 102.648 20.2458 102.801 20.0167C103.748 18.1728 104.245 18.4129 104.618 18.1165C104.852 17.9606 105.05 18.07 104.92 18.2744ZM107.725 35.2642C107.47 35.609 107.071 35.8012 106.789 36.1525C106.578 36.4021 106.391 36.6706 106.227 36.9548C106.03 37.3009 105.898 37.6917 105.557 37.9505C105.372 38.1465 105.374 37.9078 105.465 37.8036C105.998 36.7975 106.496 35.7436 107.441 35.0326C107.839 34.9685 107.741 35.1717 107.725 35.2642ZM110.421 28.8067C110.075 28.2962 109.381 28.3039 109.022 27.9915C109.095 28.1306 108.84 27.8362 109.032 27.6214C109.282 27.4156 109.761 27.8815 110.041 27.9132C110.247 27.9196 110.425 27.9876 110.661 27.9319C110.793 27.8362 110.926 27.7398 111.057 27.6427C111.147 27.5327 111.272 27.6376 111.272 27.7372C111.272 28.0445 110.979 28.3576 110.991 28.7342C111.019 29.6374 111.737 30.0547 112.052 30.769C112.24 31.2011 112.279 31.4968 111.95 31.2264C111.767 31.075 111.747 30.7741 111.624 30.5833C111.345 30.1563 111.012 29.7881 110.723 29.3689C110.622 29.1819 110.521 28.9949 110.421 28.8067V28.8067ZM112.112 33.791C112.029 33.9133 111.875 33.987 111.791 34.1093C111.662 34.1423 111.476 34.2562 111.565 33.7632C112.168 33.4093 111.998 32.5352 112.074 32.4349H112.187C112.504 32.4815 112.314 33.3963 112.112 33.791V33.791ZM72.4172 10.4983C72.14 9.96262 71.4874 9.89598 70.9608 9.77888C71.2368 9.8494 69.6393 9.60549 68.576 9.50973C68.7146 9.52267 67.0063 9.45409 66.2114 9.5712C64.9506 9.75494 63.7227 10.0299 62.5847 10.4666C62.1201 10.6432 61.5689 10.7545 61.2277 11.166C60.8461 11.6247 60.7796 12.2581 60.7233 12.8799C60.7075 13.0436 60.81 13.2066 60.7157 13.4913C60.5834 13.5488 60.4688 13.5379 60.3948 13.4408C60.2657 12.8902 60.5094 11.5089 60.4707 11.1751C60.453 11.0321 60.1442 10.9978 59.7752 11.0321C59.3764 11.067 59.0764 11.2184 58.7074 11.3245C58.0631 11.5083 57.2973 11.5794 56.6074 11.6144L54.92 11.5115C54.696 11.4811 54.4453 11.342 54.1554 11.4436C53.6314 11.6241 54.1307 12.4859 53.9472 12.9497C53.6453 13.4473 53.3592 12.405 52.8934 11.9954C52.925 12.0239 51.8769 10.9959 49.4376 11.0767C48.1211 11.1181 41.4691 11.9954 41.0577 12.7673C41.0469 12.7867 41.0381 12.8087 41.028 12.8288C41.0242 12.8449 41.021 12.8611 41.0159 12.8753C40.9204 13.2726 41.1393 13.7242 41.2292 14.0787C41.3488 14.5588 41.483 15.0945 41.5628 15.5797C41.6311 16.0177 41.7109 16.4803 41.7444 16.9041C41.7843 17.4527 41.7476 18.3204 42.0387 18.7312C42.1552 18.8936 42.2489 18.8379 42.4343 18.8088C42.7451 18.6717 42.8033 18.5203 42.9584 18.3126C43.152 18.004 43.347 17.6973 43.5407 17.3887C43.5793 17.3318 43.5951 17.3078 43.6767 17.3078C43.7033 17.3259 43.9945 17.8836 42.7356 19.166C42.4533 19.4493 42.1375 19.4655 42.0121 19.9132C41.9134 20.26 41.9647 20.6314 41.9767 21.0027L41.9818 22.2708L42.0609 23.4852C42.0805 24.6414 42.0223 25.7865 42.0628 26.9492C42.0837 27.6 42.0451 28.3027 42.2375 28.8901C42.371 29.3035 42.6331 29.7118 43.0615 29.8606C43.5432 30.0275 44.9534 30.2145 45.261 29.6872C45.4388 29.3773 45.3616 28.8481 45.3685 28.4502C45.3685 28.2936 45.4464 28.2037 45.5964 28.335C45.8578 29.0007 45.9515 29.5707 46.3008 29.7124C46.5319 29.8069 46.8439 29.7784 47.1217 29.7784C47.4407 29.5584 47.799 29.5196 47.8382 29.0253C47.9034 28.1726 47.473 27.721 47.1907 27.0579C47.03 26.6826 46.8958 26.22 46.8553 25.7969C46.8131 25.6745 46.77 25.5524 46.7262 25.4307C46.5021 24.4324 46.6502 23.2724 46.3977 22.2876L46.1331 21.5986C45.997 21.3709 45.7097 21.1153 45.7097 20.83H45.766V20.7724C45.9198 20.7452 46.1211 20.8209 46.185 20.6605C46.3205 20.3105 46.211 19.5127 46.2249 19.098C46.2546 18.0622 46.9274 16.2332 45.3685 16.1594C45.2591 16.1536 44.8337 16.2455 44.7223 16.0527C44.604 15.8036 45.5394 15.8618 45.5394 15.8651C45.8413 15.9175 46.1432 15.9699 46.4451 16.0203C47.349 16.109 48.6743 15.9517 49.3148 15.4503C49.8212 15.0518 49.737 14.1784 49.9522 13.6174C49.9629 13.5883 50.1478 13.1031 50.3098 13.248C50.4123 13.3237 50.368 13.5366 50.1231 13.8594C50.056 13.9474 50.075 14.2036 50.0933 14.4779C50.1142 14.8266 50.2503 15.176 50.3794 15.4309C50.7725 16.2118 51.8902 16.4215 51.7212 17.5259L51.6364 17.9639C51.1687 19.0443 49.8205 19.0553 48.8249 19.3005C48.2072 19.4519 47.3743 19.9048 47.0053 20.4664C46.785 20.7964 46.7122 21.202 46.6895 21.6355C46.5483 24.2176 48.0097 26.3099 49.6003 28.0477C50.3098 28.8235 51.1288 29.7383 52.1098 30.0812C52.3592 30.1686 52.6731 30.1912 52.77 30.0838C52.8845 29.7933 52.563 29.649 52.5472 29.3346C52.563 29.178 52.4946 29.0506 52.713 28.9141C53.1117 28.9218 53.0079 29.5293 53.7295 29.5423C54.7865 29.561 56.0751 27.5179 56.5447 26.7156C56.6751 26.4917 56.7618 26.3494 56.6105 26.0285C56.4979 25.8402 55.5536 25.9224 54.8225 25.5297C53.725 24.9383 53.0491 23.7317 51.7484 23.5156C51.3092 23.4412 50.7971 23.4762 50.4686 23.6903C50.0699 23.9504 49.9908 24.0552 49.8332 23.8935C50.0908 22.899 52.8687 22.5393 54.4029 22.1498C55.9156 21.6614 57.1688 20.4593 57.3295 18.7525C57.4814 17.1124 56.4454 16.0572 55.5099 14.9729L54.9738 14.4876C54.1795 13.9034 54.2959 13.8368 54.4491 13.7895C54.5922 13.7895 55.2713 14.2696 55.3846 14.3343L56.5492 15.0596C56.8011 15.2381 57.07 15.4458 57.3226 15.6231C57.9169 15.9226 59.1986 15.7091 59.6828 15.5797C60.66 15.2168 60.4233 15.975 60.291 16.8504C60.21 17.3913 60.1644 17.916 60.1359 18.2932C60.122 18.4821 60.1163 18.6542 60.2188 18.7914C60.4094 19.0476 60.8613 19.0443 61.1853 19.0443C61.5739 19.1543 61.1435 19.5063 60.96 19.5063C60.679 19.5529 60.1657 19.5567 60.0321 19.8291C59.7074 20.4767 59.8429 21.3903 59.7581 22.1583C59.6334 23.2588 59.5169 24.4065 59.3416 25.5155C59.2479 26.0977 59.1176 26.6677 59.0998 27.2998C59.0891 27.589 59.0733 27.9041 59.2714 28.0937C59.81 28.6067 60.8201 28.2451 61.2986 28.1668C63.0392 27.6298 63.4702 27.7184 64.405 27.5314C64.9107 27.3762 65.1873 27.3561 65.4101 27.0857C65.719 26.7014 65.2905 25.0224 65.2076 24.3535C65.143 23.8495 65.1259 23.3222 64.986 22.8686C64.8822 22.5451 64.867 22.4248 64.6582 22.2974C64.5518 22.232 64.0107 22.3329 63.2702 22.2372C63.1575 22.1906 63.186 21.9777 63.4221 21.9622C63.5727 21.9622 63.7436 21.9706 63.929 21.9525C64.3145 21.8626 64.7424 21.5501 64.9911 21.0454C65.1493 20.722 65.1626 20.4185 65.2151 20.029C65.1227 20.5673 65.3797 18.1444 65.4278 16.3891C65.6069 14.3867 65.2487 14.4566 65.0727 14.1719C64.8702 13.7222 64.8278 13.138 64.393 12.8281C63.9677 12.5227 62.3012 12.7608 62.1594 12.2775C62.1296 12.174 62.1999 12.0407 62.429 12.0588C63.1335 12.5279 63.7765 12.1365 64.3512 12.3992C65.093 12.7388 65.0734 13.6931 65.7829 14.0936C66.1848 14.3213 66.674 14.3343 67.1721 14.3822C67.6677 14.4287 68.1551 14.5303 68.6367 14.6203C69.2203 14.7283 69.7804 14.9127 70.3368 15.0945C71.0437 15.383 71.2134 15.5396 71.6495 15.4807C72.0128 15.1003 72.3501 12.5797 72.4824 11.4824C72.5109 11.2094 72.5248 10.7054 72.4172 10.4983V10.4983ZM42.9571 19.0806C43.6964 18.3805 43.7109 18.3663 43.9204 17.8235C43.9204 17.8235 44.2293 17.379 44.2154 17.8933C44.2014 18.4077 43.8236 18.6943 43.8236 18.6943L42.816 19.5224C42.816 19.5231 42.2179 19.7806 42.9571 19.0806ZM44.1856 29.6639C44.1154 29.1243 44.4521 29.7525 44.7451 28.8843C44.8299 28.6268 44.5318 28.1273 44.8641 28.1047C45.1635 28.7814 45.0768 29.6639 44.1856 29.6639ZM44.9198 22.9094C44.6869 23.1358 44.6071 22.8512 44.6375 22.8512C44.5812 22.4332 44.7749 21.0564 43.3653 20.2691C43.2046 20.1791 42.9666 19.9643 42.7736 19.9643C42.5685 19.8433 42.6868 19.7677 42.8299 19.7334C44.3571 19.9346 44.9198 21.4136 44.9198 22.9094ZM49.7009 13.2946C49.3585 13.6556 49.2091 14.4747 49.1737 14.5141C48.9357 14.4799 48.9863 14.4385 48.9863 14.1337C48.9756 14.1408 48.9914 13.9442 50.0205 12.4794C50.1035 12.3584 50.1269 12.2102 50.2414 12.0155C50.3402 11.8479 50.1851 11.4901 50.4642 11.4669C51.3073 11.7379 50.006 12.9646 49.7009 13.2946V13.2946ZM55.0865 26.2C55.1054 26.1922 55.1941 26.1747 55.2377 26.2265C55.3263 26.33 55.4814 26.3429 55.5732 26.3604C55.8042 26.4031 55.8732 26.3552 56.0124 26.3617C56.3637 26.3779 56.2681 26.7939 56.0036 27.3218C55.9491 27.4318 55.9029 27.7087 55.651 27.5858C55.6169 27.3962 56.0124 26.8961 55.5979 26.6548C55.3631 26.5209 55.1637 26.5726 55.0561 26.5196C54.9592 26.429 54.9592 26.2782 55.0865 26.2V26.2ZM52.0364 27.6434C52.4529 27.4486 52.7181 28.0387 52.756 28.4308C52.7738 28.5207 52.737 28.5763 52.6503 28.6061C52.5573 28.619 52.5763 28.5239 52.3965 28.2697C52.2339 28.0374 51.9674 28.0587 51.925 27.9513C51.9012 27.8952 51.8995 27.8319 51.9202 27.7745C51.941 27.7171 51.9826 27.6702 52.0364 27.6434V27.6434ZM48.2205 24.8659C48.0933 24.7928 48.03 24.7662 47.7933 24.6789C47.7281 24.6194 47.7439 24.5586 47.7439 24.468C47.8123 24.2985 47.9711 24.3819 48.1958 24.3528C48.7249 24.2377 48.7218 24.1555 49.2686 23.7751C49.4838 23.766 49.844 23.8016 49.6129 24.1121C49.1363 24.721 49.1838 25.0975 49.092 25.3912C48.5927 25.4242 48.7091 25.0729 48.2205 24.8659V24.8659ZM50.0592 24.1212C50.5731 24.2182 49.8332 24.8652 49.7978 25.1751C49.768 25.4139 49.7326 25.7057 49.7762 25.9638C50.0167 26.5163 50.0693 26.7357 49.9775 26.7661C49.868 26.8062 49.7623 26.8029 49.6807 26.6334C49.0522 25.6655 49.5952 24.5003 50.0592 24.1212ZM52.9965 21.9279C52.9225 22.0813 52.8503 22.0612 52.6668 22.0813C52.2586 22.1537 52.0826 22.2094 51.6453 22.2922C50.8275 22.4429 50.037 22.7341 49.4193 23.2911C49.5604 23.1688 48.8477 23.9265 49.0522 23.3073C49.4826 22.4934 50.6174 22.3116 51.6978 21.9946C51.7807 21.9836 53.132 21.3683 52.9965 21.9279ZM60.0258 26.7357C59.9536 26.856 59.8423 27.2714 59.6606 27.2714C59.546 27.2008 59.6568 27.0087 59.6606 27.0087C59.8562 26.3617 60.2397 25.7917 60.4106 25.1447C60.5442 24.6194 60.5872 24.1665 60.7473 23.7168C60.8315 23.6308 61.1581 23.5422 61.072 23.7751C60.9923 24.0999 60.853 24.6304 60.6802 25.8299C60.6277 26.1747 60.203 26.4361 60.0258 26.7357V26.7357ZM61.2942 25.9386C61.2189 26.0913 61.1499 26.6425 60.9201 26.4355C60.8992 26.3015 60.9923 25.9224 61.1037 25.7167C61.148 25.3718 61.0404 24.7539 61.2252 24.7119C61.6834 24.6698 61.4265 25.4546 61.2942 25.9386ZM63.367 15.178C63.7563 15.4251 63.9626 16.0009 63.9702 16.4991C63.9689 16.6938 63.9493 16.7385 63.7835 16.7314C63.6082 16.7061 63.5657 16.2985 63.4474 15.8799L63.2594 15.5079C63.1854 15.4038 63.1322 15.1695 63.367 15.178V15.178ZM62.8923 15.3895C63.8328 16.3509 63.5006 18.0797 62.5341 18.8858C62.1258 19.2197 61.6094 19.1026 62.0322 18.8101C63.7949 17.9496 62.8145 15.9595 62.691 15.7991C62.4872 15.5953 62.3695 15.4037 62.1556 15.2601C62.1176 15.2347 62.0856 15.2011 62.0616 15.1617C62.0376 15.1223 62.0224 15.078 62.0168 15.0319C62.0113 14.9859 62.0156 14.9392 62.0295 14.895C62.0434 14.8508 62.0666 14.8103 62.0974 14.7762C62.3227 14.6714 62.6575 15.1495 62.8923 15.3895V15.3895Z" fill="#AACA4E"/>
<path fill-rule="evenodd" clip-rule="evenodd" d="M71.279 6.65237L71.8961 6.65172L71.7512 5.09509L71.279 6.65237ZM70.9157 7.84654L70.8524 8.0556C71.2815 8.1132 71.667 8.1844 71.9809 8.27113L72.0486 8.29508L72.0069 7.84589L70.9157 7.84654ZM41.6252 6.70091L42.7113 6.69962L41.6252 4.51969V6.70091V6.70091Z" fill="#CC2229"/>
<path fill-rule="evenodd" clip-rule="evenodd" d="M16.6699 0.96846L22.3162 10.1072L43.8116 10.1344C43.8116 10.1344 51.0023 8.17144 53.4137 9.96102C53.5175 9.93385 53.7612 9.69575 53.9852 9.65111C54.3017 9.58382 54.5922 9.69575 54.8802 9.73004C55.5561 9.80574 56.2074 9.84585 56.915 9.84585C57.1214 9.8258 57.3296 9.80768 57.5359 9.78827C57.7106 9.71581 57.9505 9.73004 58.1568 9.73004C58.2891 9.71063 58.422 9.69187 58.5524 9.67181C58.6847 9.6524 58.817 9.63429 58.9474 9.61423C59.2904 9.39813 59.8562 9.27197 60.3012 9.27844C60.5714 9.28232 60.8233 9.36902 61.0879 9.30562L63.3171 8.57322C62.4183 8.41341 61.7322 7.68748 61.6803 6.8011H61.6753V2.39378H63.1316V6.8011C63.1747 7.04761 63.4012 7.23653 63.6766 7.23653C63.9829 7.23653 64.2316 7.00296 64.2316 6.7157L64.2443 2.39378H65.7019V6.8011H65.6956C65.6646 7.34005 65.3962 7.81882 64.9911 8.14814C65.6985 8.03303 66.4117 7.95873 67.1273 7.92558L67.245 3.69553H66.1956V2.39378H70.0659V3.69553H68.7887L68.6729 7.90228C68.9178 7.90617 69.1577 7.91393 69.3938 7.92493L71.0735 2.39314H73.0229L73.6154 8.76667H73.1824C73.3002 8.83784 73.4173 8.90901 73.535 8.97888C73.7242 9.03129 73.9293 8.98212 74.1382 8.986C74.3831 9.01058 74.6261 9.03647 74.8698 9.0617C75.4901 9.23121 76.1122 9.40072 76.7338 9.56829C76.9256 9.62588 77.118 9.68604 77.3085 9.74363C77.7003 9.79797 78.0604 9.57735 78.4838 9.6427L80.0763 10.1008L104.012 10.0684L109.446 0.983987L16.6699 0.96846V0.96846ZM23.3106 8.76732L20.4187 3.69553H19.3314L18.5086 2.39378H23.1783L24.0004 3.69553H22.3023L25.0878 8.76732H23.3106ZM27.0442 8.76732L23.9207 2.39378H27.7518L28.3512 3.69553H26.2651L26.791 4.78054H28.6809L29.1474 5.9199H27.3429L28.1189 7.51991H30.0866L30.686 8.76732H27.0442V8.76732ZM31.4322 8.76732L28.648 2.39378H32.4645L32.9943 3.69553H30.9164L31.3848 4.78054H33.2671L33.6734 5.9199H31.8759L32.5671 7.51991H34.5272L35.0602 8.76732H31.4322V8.76732ZM38.5925 8.76861L38.4223 8.5441L38.4058 8.54928L38.3938 8.50723L36.0241 5.38225L37.2279 8.77314L35.6684 8.76796L33.4133 2.41384L35.4222 2.39378L37.476 5.1021L36.752 2.41643L38.1672 2.41772L39.9065 8.76667L38.5925 8.76861V8.76861ZM43.7426 8.76861L43.2692 7.81882L41.6249 7.82012V8.76667H40.2052V2.39314H42.1584L45.3262 8.76667L43.7426 8.76861V8.76861ZM46.218 8.42117C44.6072 7.27535 44.0027 5.2205 44.8774 3.71559C45.1313 3.28017 46.099 2.07352 47.8946 2.63511L48.3649 4.16719C47.0294 3.37398 46.4117 4.25324 46.2515 4.55345C45.7914 5.41977 46.1098 6.60312 46.9572 7.26241C47.3281 7.49338 47.7231 7.60402 48.0889 7.60014L47.6535 5.66499L49.101 5.69086L49.7731 8.67415C49.7718 8.6735 47.4541 9.12575 46.218 8.42117V8.42117ZM50.4238 8.76732L49.3212 2.39378H53.0093L53.1972 3.69553H51.189L51.3706 4.78054H53.1896L53.2985 5.9199H51.5618L51.8308 7.51991H53.7251L53.9295 8.76732H50.4238V8.76732ZM60.7892 8.76732H59.2239V6.0273L58.0967 8.76732L56.9353 6.0273V8.76732H55.3694V2.39378L57.0587 2.39702L58.1151 5.06393L59.1214 2.39508L60.7879 2.39378V8.76732H60.7892V8.76732ZM77.8167 8.76732L76.5028 8.75632L75.5857 6.07518L75.2964 8.76667H73.8761L74.5622 2.39314L76.0743 2.3899L77.03 5.18103L77.4389 2.39314L78.7566 2.38408L77.8167 8.76732V8.76732ZM82.7219 3.69553H81.4965L80.6079 8.79708L79.1357 8.75179L80.0161 3.69553H79.0098L79.2016 2.39378H82.9136L82.7219 3.69553V3.69553ZM85.9112 8.75697L85.3289 6.07582L84.6327 8.76732H83.1307L84.7776 2.39378L86.3783 2.39055L86.984 5.18168L87.8207 2.39378L89.215 2.38473L87.2992 8.76732L85.9112 8.75697V8.75697ZM88.0872 8.76732L89.9758 2.39378H91.4246L89.5359 8.76732H88.0872ZM93.3385 8.76732L92.9676 5.87267L92.0246 8.76732H90.4309L92.5075 2.39378H93.9784L94.4234 5.42366L95.4063 2.39378H96.9924L94.9253 8.76732H93.3385V8.76732ZM95.5399 7.9864L96.1886 6.52031C96.9437 8.10997 97.7747 6.78299 97.7747 6.78299L99.7216 2.39314H101.352L98.9969 7.64931C98.9969 7.64931 98.8437 7.87382 98.7399 7.9864C97.2165 9.65305 95.5399 7.9864 95.5399 7.9864V7.9864ZM103.841 8.76732L102.345 8.78673L102.643 7.78648H101.083L100.342 8.76732H98.7405L103.553 2.39314H105.734L103.841 8.76732Z" fill="#CC2229"/>
<path fill-rule="evenodd" clip-rule="evenodd" d="M102.953 6.73724L103.653 4.38093L101.874 6.73724H102.953Z" fill="#CC2229"/>
<path fill-rule="evenodd" clip-rule="evenodd" d="M120.062 19.4671C119.982 19.2814 119.871 19.112 119.732 18.9668C119.582 18.8115 119.405 18.6852 119.211 18.594C118.994 18.492 118.757 18.4405 118.518 18.4432C118.261 18.4432 118.014 18.5014 117.783 18.616C117.417 18.7949 117.127 19.1038 116.967 19.4852C116.874 19.7007 116.827 19.9338 116.829 20.1693C116.829 20.4314 116.885 20.6845 116.998 20.9213C117.193 21.3322 117.539 21.6473 117.96 21.7977C118.382 21.948 118.844 21.9212 119.246 21.7232C119.422 21.6378 119.585 21.5174 119.732 21.366C119.884 21.2083 120.004 21.0213 120.084 20.8159C120.165 20.6074 120.207 20.3887 120.207 20.1673C120.207 19.9279 120.158 19.6923 120.062 19.4671V19.4671ZM119.418 20.168C119.418 20.2515 119.406 20.3324 119.385 20.4126C119.367 20.3594 119.342 20.309 119.311 20.2631C119.353 20.2087 119.386 20.1475 119.408 20.0819C119.411 20.1104 119.418 20.1376 119.418 20.168ZM117.629 20.2521C117.626 20.2243 117.618 20.1971 117.618 20.168C117.618 20.1259 117.625 20.089 117.63 20.0502L117.629 20.2521Z" fill="white"/>
<path fill-rule="evenodd" clip-rule="evenodd" d="M118.946 19.0689C119.088 19.1271 119.208 19.208 119.311 19.3115C119.414 19.4157 119.494 19.5296 119.552 19.6538C119.633 19.8275 119.671 20.0184 119.664 20.2105C119.658 20.4027 119.606 20.5903 119.513 20.7575C119.412 20.9464 119.269 21.0927 119.086 21.1975C118.905 21.3023 118.714 21.3547 118.517 21.3547C118.319 21.3547 118.129 21.3023 117.947 21.1975C117.765 21.0927 117.623 20.9464 117.52 20.7575C117.43 20.5958 117.378 20.4146 117.368 20.2285C117.359 20.0423 117.392 19.8566 117.466 19.6861C117.532 19.5412 117.615 19.4189 117.715 19.3186C117.814 19.2184 117.922 19.1414 118.039 19.0877C118.189 19.0172 118.352 18.9806 118.517 18.9803C118.663 18.9809 118.807 19.0107 118.946 19.0689V19.0689ZM119.829 19.5677C119.762 19.4109 119.667 19.2679 119.55 19.1459C119.427 19.0178 119.279 18.9117 119.102 18.8269C118.926 18.7422 118.73 18.7001 118.516 18.7001C118.299 18.6994 118.085 18.7496 117.891 18.847C117.743 18.9199 117.609 19.0174 117.493 19.1355C117.284 19.352 117.146 19.6289 117.098 19.9286C117.049 20.2282 117.093 20.5358 117.222 20.8093C117.289 20.9549 117.384 21.0894 117.503 21.2136C117.624 21.3379 117.773 21.4388 117.948 21.5177C118.124 21.5973 118.312 21.6361 118.514 21.6361C118.734 21.6361 118.94 21.5882 119.135 21.4918C119.29 21.4143 119.431 21.3102 119.552 21.1839C119.808 20.9103 119.952 20.5461 119.953 20.1668C119.953 19.9624 119.912 19.7631 119.829 19.5677V19.5677ZM118.35 20.4321C118.468 20.4321 118.548 20.4412 118.593 20.4599C118.638 20.4787 118.67 20.5097 118.691 20.5524C118.707 20.5835 118.719 20.6527 118.724 20.7588C118.727 20.8656 118.737 20.9393 118.751 20.9807H119.205C119.196 20.9601 119.19 20.9386 119.186 20.9167C119.183 20.8792 119.181 20.8417 119.181 20.8041C119.182 20.699 119.169 20.5942 119.144 20.4923C119.124 20.4289 119.084 20.3739 119.023 20.326C118.962 20.2781 118.891 20.249 118.808 20.2406C118.938 20.2289 119.035 20.1882 119.1 20.1183C119.133 20.0802 119.159 20.0356 119.176 19.9872C119.193 19.9388 119.2 19.8875 119.197 19.8362C119.197 19.6881 119.149 19.571 119.05 19.4849C118.953 19.3989 118.791 19.3555 118.563 19.3555H117.879L117.876 20.9814H118.35V20.4321V20.4321ZM118.445 19.6803C118.548 19.6803 118.621 19.6978 118.664 19.7327C118.684 19.7505 118.7 19.7728 118.711 19.7979C118.722 19.823 118.727 19.8503 118.726 19.8776C118.726 19.9501 118.705 20.0057 118.661 20.0446C118.617 20.0834 118.542 20.1028 118.434 20.1028H118.351V19.6803H118.445Z" fill="black"/>
</g>
<defs>
<clipPath id="clip0">
<rect width="122" height="56" fill="white"/>
</clipPath>
</defs>
</svg>
